<?xml version="1.0" encoding="utf-8"?>
<svg version="1.1" id="Layer_1" xmlns="http://www.w3.org/2000/svg" xmlns:xlink="http://www.w3.org/1999/xlink" x="0px" y="0px"
	 viewBox="0 0 104 13" style="enable-background:new 0 0 104 13;" xml:space="preserve">
<style type="text/css">
	.st0{fill-rule:evenodd;clip-rule:evenodd;fill:#FFFFFF;}
</style>
<path id="FAIRE" class="st0" d="M11.3,3.2l-0.2,0.1c-0.5-0.6-0.9-1.1-1.4-1.5C9.3,1.3,8.8,1,8.4,0.8C8.2,0.7,7.8,0.7,7.3,0.6
	S6.2,0.5,5.5,0.5c-0.1,0-0.3,0-0.4,0c-0.2,0-0.3,0-0.4,0c-0.1,0-0.3,0-0.4,0c-0.1,0-0.2,0-0.3,0c0,0.1,0,0.1,0,0.2s0,0.2,0,0.2
	c0,0.1,0,0.2,0,0.4c0,0.1,0,0.3,0,0.5c0,0.4,0,0.9,0,1.4c0,0.5,0,1,0,1.4v1.7h0.3c0.2,0,0.4,0,0.6,0c0.2,0,0.5,0,0.7,0
	s0.5,0,0.6-0.1c0.4-0.1,0.8-0.2,1-0.4c0.2-0.2,0.4-0.3,0.6-0.5c0.1-0.2,0.2-0.4,0.3-0.7C8,4.3,8.1,4,8.1,3.8h0.2v5.7H8.1
	C8,9.1,7.9,8.7,7.7,8.3c-0.2-0.4-0.4-0.7-0.6-1C6.8,7.1,6.6,6.9,6.3,6.8C6.1,6.7,5.8,6.7,5.4,6.7c-0.2,0-0.3,0-0.5,0
	c-0.1,0-0.3,0-0.4,0H3.8v2.2c0,0.3,0,0.6,0,0.9c0,0.3,0,0.5,0,0.7c0,0.4,0,0.7,0.1,1.1c0,0.3,0.1,0.6,0.2,0.8
	c0.1,0.2,0.3,0.3,0.5,0.4c0.3,0.1,0.6,0.1,1.1,0.2V13H0v-0.2c0.3,0,0.6-0.1,0.8-0.2c0.3-0.1,0.5-0.3,0.6-0.4
	c0.1-0.1,0.1-0.2,0.1-0.3c0-0.1,0.1-0.3,0.1-0.5s0.1-0.4,0.1-0.6c0-0.2,0-0.4,0-0.6c0-0.2,0-0.4,0-0.7c0-0.3,0-0.6,0-0.9
	c0-0.3,0-0.7,0-1V3.1c0-0.2,0-0.4,0-0.7c0-0.2,0-0.4,0-0.6s0-0.4-0.1-0.5c0-0.2-0.1-0.3-0.2-0.3C1.3,0.7,1.1,0.6,0.9,0.6
	S0.5,0.5,0.2,0.4V0.2H10L11.3,3.2z M30.7,13v-0.2c0,0,0.1,0,0.3,0s0.3-0.1,0.4-0.1c0.1-0.1,0.3-0.1,0.4-0.2c0.1-0.1,0.2-0.2,0.2-0.4
	c0-0.1,0-0.3-0.1-0.5c-0.1-0.2-0.2-0.5-0.3-0.9c-0.1-0.3-0.3-0.7-0.4-1.2C31,9,30.8,8.6,30.6,8.1h-4.7c-0.2,0.4-0.3,0.9-0.5,1.3
	c-0.2,0.4-0.3,0.8-0.5,1.2c-0.2,0.6-0.4,1.1-0.4,1.3c0,0.2,0,0.3,0.1,0.4c0.1,0.1,0.2,0.2,0.4,0.2c0.1,0.1,0.3,0.1,0.5,0.1
	c0.2,0,0.3,0.1,0.5,0.1V13h-3.8v-0.2c0.3,0,0.6-0.1,0.8-0.2s0.3-0.2,0.4-0.3c0.1-0.1,0.2-0.3,0.4-0.6c0.2-0.3,0.4-0.8,0.7-1.4
	c0.2-0.6,0.5-1.2,0.8-1.9c0.3-0.7,0.6-1.4,1-2.2s0.6-1.5,1-2.3c0.3-0.8,0.6-1.5,0.9-2.1L28,1.5c0.2-0.1,0.4-0.2,0.6-0.3
	C28.7,1,28.9,0.9,29,0.7s0.2-0.3,0.3-0.4c0.1-0.1,0.2-0.2,0.2-0.3h0.1c0.4,1,0.7,1.9,1,2.8c0.3,0.9,0.6,1.7,1,2.5s0.6,1.6,0.9,2.4
	s0.6,1.5,0.9,2.3c0.1,0.4,0.3,0.7,0.4,0.9s0.2,0.5,0.4,0.8c0,0,0.1,0.1,0.2,0.2c0.1,0.1,0.2,0.2,0.3,0.4c0.1,0.1,0.3,0.2,0.5,0.3
	c0.2,0.1,0.4,0.1,0.7,0.2V13H30.7z M28.4,2.3C28.3,2.4,28.2,2.7,28,3c-0.1,0.3-0.3,0.7-0.5,1.2c-0.2,0.5-0.4,1-0.7,1.6
	c-0.2,0.6-0.5,1.2-0.8,1.9h4.4c-0.2-0.5-0.4-1.1-0.6-1.6s-0.4-1-0.6-1.5s-0.4-0.9-0.5-1.3C28.6,2.9,28.5,2.5,28.4,2.3z M53.4,13H48
	v-0.2c0.3,0,0.6-0.1,0.8-0.2c0.3-0.1,0.5-0.3,0.6-0.5c0.1-0.1,0.1-0.2,0.1-0.3c0-0.1,0.1-0.3,0.1-0.5c0-0.2,0-0.4,0-0.6
	c0-0.2,0-0.4,0-0.6c0-0.2,0-0.4,0-0.7c0-0.3,0-0.6,0-0.9c0-0.3,0-0.7,0-1V2.5c0-0.2,0-0.4,0-0.6c0-0.2,0-0.3-0.1-0.5
	c0-0.1-0.1-0.3-0.2-0.3c-0.2-0.2-0.4-0.3-0.6-0.4S48.3,0.5,48,0.4V0.2h5.3v0.2c-0.2,0-0.5,0.1-0.8,0.2S52,0.9,51.9,1.2
	c-0.1,0.2-0.2,0.5-0.2,0.8c0,0.3,0,0.6,0,0.9c0,0.3,0,0.6,0,0.9c0,0.3,0,0.6,0,0.9v5.9c0,0.3,0,0.7,0,1c0,0.3,0.1,0.5,0.2,0.7
	c0.1,0.2,0.4,0.4,0.7,0.5c0.3,0.1,0.6,0.2,0.8,0.2V13z M80.3,13h-3.6c-0.1-0.1-0.2-0.2-0.2-0.2c0-0.1-0.1-0.1-0.2-0.2
	c-0.1-0.1-0.1-0.2-0.2-0.3c-0.1-0.1-0.2-0.3-0.4-0.6c-0.2-0.3-0.4-0.6-0.6-0.9c-0.2-0.3-0.3-0.5-0.5-0.8c-0.2-0.3-0.4-0.5-0.6-0.8
	s-0.5-0.6-0.7-0.9c-0.2-0.3-0.5-0.5-0.8-0.8s-0.6-0.4-0.9-0.4C71.3,7,71.1,7,71,7c-0.1,0-0.2,0-0.4,0v2c0,0.6,0,1,0,1.4
	c0,0.4,0,0.7,0,1c0,0.3,0.1,0.5,0.2,0.7c0.1,0.2,0.3,0.3,0.6,0.5c0.3,0.2,0.7,0.3,1.1,0.3V13h-5.7v-0.2c0.3,0,0.6-0.1,0.9-0.2
	c0.3-0.1,0.5-0.2,0.6-0.4c0.1-0.1,0.1-0.2,0.1-0.3c0-0.1,0.1-0.3,0.1-0.5s0-0.4,0-0.6c0-0.2,0-0.4,0-0.6c0-0.2,0-0.4,0-0.7
	c0-0.3,0-0.6,0-0.9c0-0.3,0-0.7,0-1V3.1c0-0.2,0-0.4,0-0.6c0-0.2,0-0.4,0-0.6s0-0.4-0.1-0.5c0-0.2-0.1-0.3-0.2-0.3
	c-0.2-0.2-0.4-0.3-0.6-0.4c-0.2-0.1-0.5-0.1-0.8-0.2V0.2h0.7c0.4,0,0.9,0,1.4,0c0.5,0,1,0,1.5,0h1.2c0.8,0,1.5,0,2.1,0.1
	c0.6,0,1.2,0.2,1.7,0.5c0.5,0.3,0.9,0.6,1.3,1.1c0.3,0.5,0.5,1.1,0.5,1.8c0,0.4-0.1,0.8-0.2,1.2c-0.2,0.3-0.4,0.7-0.6,0.9
	c-0.3,0.3-0.6,0.5-0.9,0.7s-0.7,0.3-1.1,0.5V7c0.2,0.1,0.4,0.3,0.6,0.5c0.2,0.2,0.4,0.4,0.6,0.7c0.3,0.4,0.6,0.9,1,1.5s0.7,1,1,1.4
	c0.4,0.6,0.9,1.1,1.3,1.3s0.9,0.5,1.5,0.5V13z M75.3,3.5c0-0.6-0.1-1.1-0.4-1.6c-0.3-0.5-0.7-0.8-1.3-1.1c-0.3-0.1-0.6-0.2-0.9-0.3
	s-0.6-0.1-1-0.1c-0.2,0-0.5,0-0.6,0c-0.2,0-0.3,0-0.4,0c0,0.1,0,0.1,0,0.2c0,0.1,0,0.1,0,0.2s0,0.2,0,0.3c0,0.1,0,0.4,0,0.6
	c0,0.4,0,0.9,0,1.4s0,1,0,1.5v1.9c0.5,0,0.9,0,1.4-0.1c0.4,0,0.8-0.1,1.2-0.3c0.4-0.1,0.7-0.3,1-0.5c0.3-0.2,0.5-0.4,0.7-0.7
	C75,5,75.1,4.8,75.2,4.5C75.3,4.2,75.3,3.9,75.3,3.5z M104,9.6l-0.9,3.4H92.2v-0.2c0.3,0,0.6-0.1,0.8-0.2c0.3-0.1,0.5-0.3,0.6-0.4
	c0.1-0.1,0.1-0.2,0.1-0.3c0-0.1,0.1-0.3,0.1-0.5S94,11,94,10.8c0-0.2,0-0.4,0-0.6c0-0.2,0-0.4,0-0.7c0-0.3,0-0.6,0-0.9
	c0-0.3,0-0.7,0-1c0-0.4,0-0.7,0-1V3.1c0-0.2,0-0.4,0-0.7s0-0.4,0-0.6c0-0.2,0-0.4-0.1-0.5c0-0.2-0.1-0.3-0.2-0.3
	c-0.2-0.2-0.4-0.3-0.6-0.4c-0.2-0.1-0.5-0.1-0.8-0.2V0.2h9.8l1.2,2.9l-0.2,0.1c-1-1.2-1.9-2-2.7-2.4c-0.2-0.1-0.6-0.2-1.1-0.2
	s-1.2-0.1-2-0.1c-0.2,0-0.5,0-0.8,0c-0.3,0-0.5,0-0.6,0.1c0,0.2,0,0.6-0.1,1.2c0,0.6,0,1.3,0,2.1c0,0.4,0,0.8,0,1.1
	c0,0.3,0,0.6,0,0.8c0,0.2,0,0.3,0,0.5c0,0.1,0,0.2,0,0.2c0.1,0,0.2,0,0.4,0s0.4,0,0.6,0s0.5,0,0.7,0c0.2,0,0.4,0,0.6-0.1
	c0.4-0.1,0.7-0.2,0.9-0.3c0.2-0.1,0.4-0.3,0.6-0.5c0.1-0.2,0.3-0.4,0.4-0.7c0.1-0.3,0.2-0.6,0.2-0.9h0.2v5.6h-0.2
	c-0.1-0.4-0.2-0.8-0.4-1.2c-0.2-0.4-0.4-0.7-0.6-0.9c-0.2-0.2-0.4-0.3-0.7-0.4c-0.3-0.1-0.6-0.2-0.9-0.2c-0.2,0-0.3,0-0.4,0
	c-0.1,0-0.2,0-0.4,0c-0.1,0-0.2,0-0.4,0c-0.1,0-0.3,0-0.5,0c0,0.2,0,0.4,0,0.7s0,0.6,0,1c0,0.2,0,0.3,0,0.5s0,0.4,0,0.6
	c0,0.2,0,0.4,0,0.5c0,0.2,0,0.3,0,0.4c0,0.4,0,0.7,0.1,1.1c0,0.3,0.1,0.6,0.2,0.8s0.4,0.3,0.8,0.4c0.4,0.1,0.8,0.1,1.3,0.1
	c0.2,0,0.5,0,0.8,0s0.6,0,1-0.1c0.4,0,0.7-0.1,1-0.3c0.3-0.1,0.6-0.3,0.9-0.6c0.3-0.2,0.6-0.6,0.9-0.9c0.3-0.4,0.6-0.8,0.9-1.3
	L104,9.6z"/>
</svg>
