<?xml version="1.0" encoding="utf-8"?>
<!-- Generator: Adobe Illustrator 27.3.1, SVG Export Plug-In . SVG Version: 6.00 Build 0)  -->
<svg version="1.1" id="Layer_1" xmlns="http://www.w3.org/2000/svg" xmlns:xlink="http://www.w3.org/1999/xlink" x="0px" y="0px"
	 viewBox="0 0 141.7 141.7" style="enable-background:new 0 0 141.7 141.7;" xml:space="preserve">
<style type="text/css">
	.st0{fill:#5D5B5B;}
	.st1{fill:#FF6600;}
</style>
<g id="Layer_1_00000175322407283834241310000014615857754067902643_">
</g>
<g>
	<g>
		<path class="st0" d="M29,36V81h-9.4V36h-17v-8.4h44.1V36H29z"/>
		<path class="st1" d="M63.5,66.4V81h-6.9V66.4H32.4v-4.1L61,27.4h2.6v33.4h5.4v5.6H63.5z M56.7,42L41,60.8h15.6V42z"/>
		<path class="st0" d="M72.3,27.6h7.3v36.5c0,3.2,1,5.9,3.1,8c2.1,2.1,4.8,3.2,8.2,3.2c3.6,0,6.4-1,8.5-3.1c2.1-2,3.1-4.8,3.1-8.3
			V27.6h7.3v37.1c0,5.4-1.7,9.6-5,12.6c-3.4,3-7.9,4.5-13.7,4.5c-6,0-10.6-1.5-13.8-4.4c-3.2-3-4.8-7.2-4.8-12.7V27.6z"/>
		<path class="st0" d="M113.8,78.6l2.4-6.5c3.8,2.5,6.9,3.8,9.3,3.8c4.3,0,6.4-1.8,6.4-5.4c0-2.6-2.1-4.8-6.2-6.6
			c-3.2-1.5-5.3-2.6-6.4-3.3c-1.1-0.8-2.1-1.6-2.9-2.6c-0.8-1-1.4-2-1.8-3.1c-0.4-1.1-0.6-2.2-0.6-3.5c0-3.2,1.2-5.7,3.5-7.5
			c2.3-1.8,5.4-2.7,9.1-2.7c2.8,0,6.4,0.9,10.7,2.7l-2,6.4c-2.7-2.2-5.5-3.3-8.3-3.3c-1.6,0-3,0.4-4.2,1.2c-1.1,0.8-1.7,1.8-1.7,3
			c0,2.5,1.4,4.4,4.3,5.7l4.9,2.3c3,1.4,5.2,3,6.6,4.7c1.4,1.8,2.1,4,2.1,6.7c0,3.5-1.2,6.2-3.7,8.2c-2.4,2-5.8,3-10.2,3
			C121.2,81.7,117.4,80.7,113.8,78.6z"/>
	</g>
	<g>
		<path class="st0" d="M24.4,98.5c0.1-0.1,0.3-0.1,0.5-0.1c0.2,0,0.4,0.1,0.6,0.2c0.2,0.1,0.3,0.3,0.3,0.6c0,0.1,0,0.2-0.1,0.4
			l-5,14.1c-0.1,0.2-0.2,0.4-0.4,0.5c-0.2,0.1-0.4,0.2-0.6,0.2c-0.2,0-0.4-0.1-0.6-0.2c-0.2-0.1-0.3-0.3-0.4-0.5l-4.3-12.3L10,113.6
			c-0.1,0.2-0.2,0.4-0.4,0.5c-0.2,0.1-0.4,0.2-0.6,0.2c-0.2,0-0.4-0.1-0.6-0.2c-0.2-0.1-0.3-0.3-0.4-0.5L3,99.5
			C3,99.3,3,99.2,3,99.1c0-0.2,0.1-0.4,0.3-0.6c0.2-0.1,0.4-0.2,0.6-0.2c0.2,0,0.3,0,0.5,0.1c0.2,0.1,0.3,0.2,0.3,0.4l4.4,12.6
			L13.5,99c0.1-0.2,0.2-0.4,0.4-0.5c0.2-0.1,0.3-0.2,0.5-0.2c0.2,0,0.4,0.1,0.5,0.2c0.2,0.1,0.3,0.3,0.4,0.5l4.4,12.5l4.4-12.6
			C24.1,98.7,24.2,98.6,24.4,98.5z"/>
		<path class="st0" d="M41.2,98.6c0.2,0.2,0.2,0.4,0.2,0.7v14c0,0.3-0.1,0.5-0.2,0.7c-0.2,0.2-0.4,0.3-0.7,0.3
			c-0.3,0-0.5-0.1-0.7-0.3c-0.2-0.2-0.2-0.4-0.2-0.7v-6.3h-9.4v6.3c0,0.3-0.1,0.5-0.2,0.7c-0.2,0.2-0.4,0.3-0.7,0.3
			c-0.3,0-0.5-0.1-0.7-0.3c-0.2-0.2-0.2-0.4-0.2-0.7v-14c0-0.3,0.1-0.5,0.2-0.7c0.2-0.2,0.4-0.3,0.7-0.3c0.3,0,0.5,0.1,0.7,0.3
			c0.2,0.2,0.2,0.4,0.2,0.7v6.1h9.4v-6.1c0-0.3,0.1-0.5,0.2-0.7c0.2-0.2,0.4-0.3,0.7-0.3C40.9,98.3,41.1,98.4,41.2,98.6z"/>
		<path class="st0" d="M48.1,113.3c-1.1-0.7-1.9-1.6-2.5-2.8c-0.6-1.2-0.9-2.6-0.9-4.2c0-1.6,0.3-3.1,0.9-4.3
			c0.6-1.2,1.4-2.1,2.5-2.8c1.1-0.6,2.3-1,3.8-1c1.5,0,2.7,0.3,3.8,1c1.1,0.6,1.9,1.6,2.5,2.8c0.6,1.2,0.9,2.6,0.9,4.2
			c0,1.6-0.3,3-0.9,4.2c-0.6,1.2-1.4,2.1-2.5,2.8c-1.1,0.7-2.3,1-3.8,1C50.4,114.3,49.2,114,48.1,113.3z M55.7,111.1
			c0.9-1.1,1.4-2.7,1.4-4.8c0-2.1-0.5-3.7-1.4-4.8c-0.9-1.1-2.2-1.7-3.9-1.7c-1.7,0-2.9,0.6-3.9,1.7c-0.9,1.1-1.4,2.7-1.4,4.8
			c0,2.1,0.5,3.6,1.4,4.8c0.9,1.1,2.2,1.7,3.9,1.7C53.5,112.7,54.8,112.2,55.7,111.1z"/>
		<path class="st0" d="M62.5,113.9c-0.2-0.2-0.3-0.4-0.3-0.6v-14c0-0.3,0.1-0.5,0.2-0.7c0.2-0.2,0.4-0.3,0.7-0.3
			c0.3,0,0.5,0.1,0.7,0.3c0.2,0.2,0.2,0.4,0.2,0.7v13.3h7.2c0.3,0,0.5,0.1,0.6,0.2c0.1,0.1,0.2,0.3,0.2,0.6c0,0.3-0.1,0.4-0.2,0.6
			c-0.1,0.1-0.4,0.2-0.6,0.2h-8.1C62.9,114.1,62.7,114,62.5,113.9z"/>
		<path class="st0" d="M74.5,113.9c-0.2-0.2-0.3-0.4-0.3-0.6V99.3c0-0.3,0.1-0.5,0.3-0.6c0.2-0.2,0.4-0.2,0.7-0.2h8.3
			c0.3,0,0.5,0.1,0.6,0.2c0.1,0.1,0.2,0.3,0.2,0.6c0,0.2-0.1,0.4-0.2,0.6c-0.1,0.1-0.4,0.2-0.6,0.2h-7.4v5.4h7
			c0.3,0,0.5,0.1,0.6,0.2c0.1,0.1,0.2,0.3,0.2,0.6c0,0.2-0.1,0.4-0.2,0.6c-0.1,0.1-0.4,0.2-0.6,0.2h-7v5.7h7.4
			c0.3,0,0.5,0.1,0.6,0.2c0.1,0.1,0.2,0.3,0.2,0.6c0,0.2-0.1,0.4-0.2,0.6c-0.1,0.1-0.4,0.2-0.6,0.2h-8.3
			C74.9,114.1,74.7,114,74.5,113.9z"/>
		<path class="st0" d="M88.8,113.8c-1-0.3-1.8-0.8-2.4-1.3c-0.2-0.2-0.3-0.5-0.3-0.8c0-0.2,0.1-0.4,0.2-0.5c0.1-0.2,0.3-0.2,0.4-0.2
			c0.2,0,0.4,0.1,0.6,0.2c1.4,1.1,2.9,1.6,4.7,1.6c1.3,0,2.2-0.2,2.9-0.7c0.7-0.5,1-1.2,1-2.1c0-0.5-0.2-0.9-0.5-1.3
			c-0.3-0.3-0.8-0.6-1.3-0.8c-0.5-0.2-1.3-0.4-2.2-0.6c-1.2-0.3-2.2-0.6-3-0.9c-0.8-0.3-1.4-0.8-1.9-1.3c-0.5-0.6-0.7-1.3-0.7-2.3
			c0-0.9,0.2-1.7,0.7-2.4c0.5-0.7,1.2-1.2,2-1.6c0.9-0.4,1.9-0.6,3-0.6c1,0,2,0.2,2.9,0.5c0.9,0.3,1.6,0.8,2.3,1.4
			c0.2,0.2,0.4,0.5,0.4,0.8c0,0.2-0.1,0.4-0.2,0.5c-0.1,0.2-0.3,0.2-0.4,0.2c-0.2,0-0.4-0.1-0.6-0.2c-0.7-0.6-1.4-1-2-1.2
			c-0.6-0.2-1.4-0.4-2.2-0.4c-1.2,0-2.2,0.3-2.9,0.8c-0.7,0.5-1,1.2-1,2.1c0,0.8,0.3,1.4,0.9,1.8c0.6,0.4,1.5,0.7,2.8,1
			c1.3,0.3,2.4,0.6,3.2,0.9c0.8,0.3,1.4,0.7,1.9,1.2c0.5,0.5,0.8,1.3,0.8,2.2c0,0.9-0.2,1.6-0.7,2.3c-0.5,0.7-1.2,1.2-2,1.6
			c-0.9,0.4-1.9,0.6-3,0.6C90.8,114.3,89.8,114.1,88.8,113.8z"/>
		<path class="st0" d="M114.1,113.4c0,0.2-0.1,0.4-0.3,0.6c-0.2,0.1-0.4,0.2-0.6,0.2c-0.4,0-0.6-0.2-0.8-0.5l-1.6-3.6h-8.4l-1.6,3.6
			c-0.1,0.4-0.4,0.5-0.8,0.5c-0.2,0-0.4-0.1-0.6-0.2c-0.2-0.2-0.3-0.3-0.3-0.6c0-0.1,0-0.2,0.1-0.4l6.3-14.1
			c0.1-0.2,0.2-0.4,0.4-0.5c0.2-0.1,0.4-0.2,0.6-0.2c0.2,0,0.4,0.1,0.6,0.2c0.2,0.1,0.3,0.3,0.4,0.5l6.3,14.1
			C114.1,113.2,114.1,113.3,114.1,113.4z M103.2,108.6h7l-3.5-8L103.2,108.6z"/>
		<path class="st0" d="M117,113.9c-0.2-0.2-0.3-0.4-0.3-0.6v-14c0-0.3,0.1-0.5,0.2-0.7c0.2-0.2,0.4-0.3,0.7-0.3
			c0.3,0,0.5,0.1,0.7,0.3c0.2,0.2,0.2,0.4,0.2,0.7v13.3h7.2c0.3,0,0.5,0.1,0.6,0.2c0.1,0.1,0.2,0.3,0.2,0.6c0,0.3-0.1,0.4-0.2,0.6
			c-0.1,0.1-0.4,0.2-0.6,0.2h-8.1C117.3,114.1,117.1,114,117,113.9z"/>
		<path class="st0" d="M128.9,113.9c-0.2-0.2-0.3-0.4-0.3-0.6V99.3c0-0.3,0.1-0.5,0.3-0.6c0.2-0.2,0.4-0.2,0.7-0.2h8.3
			c0.3,0,0.5,0.1,0.6,0.2c0.1,0.1,0.2,0.3,0.2,0.6c0,0.2-0.1,0.4-0.2,0.6c-0.1,0.1-0.4,0.2-0.6,0.2h-7.4v5.4h7
			c0.3,0,0.5,0.1,0.6,0.2c0.1,0.1,0.2,0.3,0.2,0.6c0,0.2-0.1,0.4-0.2,0.6c-0.1,0.1-0.4,0.2-0.6,0.2h-7v5.7h7.4
			c0.3,0,0.5,0.1,0.6,0.2c0.1,0.1,0.2,0.3,0.2,0.6c0,0.2-0.1,0.4-0.2,0.6c-0.1,0.1-0.4,0.2-0.6,0.2h-8.3
			C129.3,114.1,129.1,114,128.9,113.9z"/>
	</g>
</g>
</svg>
