<?xml version="1.0" encoding="utf-8"?>
<!-- Generator: Adobe Illustrator 27.3.1, SVG Export Plug-In . SVG Version: 6.00 Build 0)  -->
<svg version="1.1" id="Layer_1" xmlns="http://www.w3.org/2000/svg" xmlns:xlink="http://www.w3.org/1999/xlink" x="0px" y="0px"
	 viewBox="0 0 158 50" style="enable-background:new 0 0 158 50;" xml:space="preserve">
<style type="text/css">
	.st0{fill:#5D5B5B;}
	.st1{fill:#FF6600;}
</style>
<g id="Layer_1_00000175322407283834241310000014615857754067902643_">
</g>
<g>
	<g>
		<path class="st0" d="M102.8,39.58c0.06-0.04,0.13-0.06,0.21-0.06c0.1,0,0.19,0.03,0.26,0.09c0.07,0.06,0.11,0.14,0.11,0.24
			c0,0.04-0.01,0.1-0.03,0.15l-2.16,6.08c-0.03,0.09-0.09,0.16-0.16,0.21c-0.08,0.05-0.16,0.07-0.26,0.07
			c-0.09,0-0.17-0.02-0.25-0.07c-0.08-0.05-0.13-0.12-0.16-0.21l-1.87-5.29l-1.89,5.29c-0.03,0.09-0.09,0.16-0.16,0.21
			c-0.08,0.05-0.16,0.07-0.25,0.07c-0.09,0-0.17-0.02-0.25-0.07c-0.08-0.05-0.13-0.12-0.16-0.21l-2.17-6.08
			c-0.02-0.05-0.03-0.1-0.03-0.14c0-0.1,0.04-0.18,0.12-0.25c0.08-0.06,0.17-0.1,0.27-0.1c0.08,0,0.15,0.02,0.21,0.06
			c0.07,0.04,0.11,0.1,0.14,0.19l1.88,5.42l1.91-5.36c0.03-0.1,0.08-0.17,0.15-0.21c0.07-0.05,0.15-0.07,0.23-0.07
			c0.08,0,0.16,0.03,0.23,0.08c0.07,0.05,0.12,0.12,0.15,0.22l1.88,5.37l1.9-5.44C102.69,39.69,102.73,39.63,102.8,39.58z"/>
		<path class="st0" d="M110.04,39.64c0.07,0.07,0.1,0.17,0.1,0.29v6.02c0,0.12-0.03,0.22-0.1,0.29c-0.07,0.07-0.16,0.11-0.28,0.11
			c-0.12,0-0.22-0.04-0.29-0.11c-0.07-0.07-0.1-0.17-0.1-0.29v-2.73h-4.03v2.73c0,0.12-0.03,0.22-0.1,0.29
			c-0.07,0.07-0.17,0.11-0.29,0.11c-0.12,0-0.21-0.04-0.28-0.11c-0.07-0.07-0.1-0.17-0.1-0.29v-6.02c0-0.12,0.03-0.22,0.1-0.29
			c0.07-0.07,0.16-0.11,0.28-0.11c0.12,0,0.22,0.04,0.29,0.11c0.07,0.07,0.1,0.17,0.1,0.29v2.62h4.03v-2.62
			c0-0.12,0.03-0.22,0.1-0.29c0.07-0.07,0.17-0.11,0.29-0.11C109.88,39.53,109.98,39.57,110.04,39.64z"/>
		<path class="st0" d="M112.99,45.96c-0.46-0.28-0.82-0.68-1.06-1.19c-0.25-0.52-0.37-1.12-0.37-1.82c0-0.71,0.12-1.32,0.37-1.84
			c0.24-0.52,0.6-0.92,1.06-1.19c0.46-0.28,1.01-0.42,1.64-0.42c0.63,0,1.18,0.14,1.64,0.42c0.46,0.28,0.81,0.67,1.06,1.19
			c0.24,0.52,0.37,1.13,0.37,1.83c0,0.7-0.12,1.31-0.37,1.83c-0.25,0.52-0.6,0.92-1.06,1.2c-0.46,0.28-1,0.42-1.63,0.42
			C114,46.38,113.45,46.24,112.99,45.96z M116.29,44.99c0.4-0.48,0.6-1.17,0.6-2.06c0-0.89-0.2-1.57-0.59-2.05
			c-0.39-0.48-0.95-0.72-1.67-0.72c-0.71,0-1.27,0.24-1.67,0.72c-0.4,0.48-0.6,1.16-0.6,2.05c0,0.88,0.2,1.57,0.6,2.05
			c0.4,0.48,0.95,0.73,1.67,0.73C115.33,45.71,115.89,45.47,116.29,44.99z"/>
		<path class="st0" d="M119.21,46.21c-0.07-0.07-0.11-0.15-0.11-0.26v-6.01c0-0.12,0.03-0.22,0.1-0.29
			c0.07-0.07,0.17-0.11,0.29-0.11c0.12,0,0.22,0.04,0.29,0.11c0.07,0.07,0.11,0.17,0.11,0.29v5.71h3.08c0.11,0,0.2,0.03,0.27,0.09
			c0.06,0.06,0.1,0.14,0.1,0.25c0,0.11-0.03,0.19-0.1,0.25c-0.06,0.06-0.15,0.09-0.27,0.09h-3.48
			C119.37,46.31,119.28,46.27,119.21,46.21z"/>
		<path class="st0" d="M124.36,46.2c-0.07-0.07-0.11-0.16-0.11-0.28v-5.96c0-0.11,0.04-0.21,0.11-0.28c0.07-0.07,0.17-0.1,0.29-0.1
			h3.57c0.11,0,0.2,0.03,0.27,0.09c0.06,0.06,0.1,0.14,0.1,0.24c0,0.1-0.03,0.18-0.1,0.24c-0.06,0.06-0.15,0.09-0.27,0.09h-3.2v2.34
			h3.01c0.11,0,0.2,0.03,0.27,0.09c0.06,0.06,0.1,0.14,0.1,0.24c0,0.1-0.03,0.18-0.1,0.24c-0.06,0.06-0.15,0.09-0.27,0.09h-3.01
			v2.44h3.2c0.11,0,0.2,0.03,0.27,0.08c0.06,0.05,0.1,0.14,0.1,0.24c0,0.1-0.03,0.18-0.1,0.24c-0.06,0.06-0.15,0.09-0.27,0.09h-3.57
			C124.53,46.31,124.43,46.27,124.36,46.2z"/>
		<path class="st0" d="M130.48,46.17c-0.44-0.14-0.78-0.34-1.04-0.58c-0.1-0.09-0.14-0.2-0.14-0.33c0-0.09,0.03-0.17,0.08-0.23
			c0.05-0.07,0.11-0.1,0.18-0.1c0.08,0,0.17,0.04,0.27,0.1c0.59,0.46,1.27,0.69,2.02,0.69c0.55,0,0.97-0.1,1.26-0.31
			c0.29-0.21,0.44-0.51,0.44-0.9c0-0.22-0.07-0.4-0.21-0.54c-0.14-0.14-0.32-0.25-0.55-0.33c-0.23-0.08-0.54-0.17-0.93-0.26
			c-0.52-0.12-0.95-0.25-1.28-0.38c-0.33-0.13-0.6-0.32-0.81-0.57c-0.21-0.25-0.31-0.57-0.31-0.97c0-0.38,0.1-0.72,0.31-1.02
			c0.21-0.3,0.5-0.52,0.87-0.69s0.8-0.24,1.27-0.24c0.45,0,0.86,0.07,1.25,0.21c0.38,0.14,0.71,0.33,0.97,0.59
			c0.1,0.1,0.15,0.21,0.15,0.33c0,0.09-0.03,0.17-0.08,0.23c-0.05,0.07-0.11,0.1-0.18,0.1c-0.07,0-0.16-0.03-0.28-0.1
			c-0.31-0.25-0.6-0.43-0.87-0.53c-0.27-0.1-0.59-0.15-0.96-0.15c-0.53,0-0.94,0.11-1.23,0.33c-0.29,0.22-0.44,0.53-0.44,0.92
			c0,0.34,0.13,0.59,0.39,0.76c0.26,0.17,0.65,0.32,1.19,0.44c0.58,0.14,1.03,0.27,1.36,0.39c0.33,0.12,0.61,0.29,0.83,0.53
			c0.22,0.24,0.33,0.55,0.33,0.94c0,0.38-0.1,0.71-0.31,0.99c-0.21,0.29-0.5,0.51-0.87,0.67c-0.38,0.16-0.8,0.24-1.29,0.24
			C131.38,46.38,130.92,46.31,130.48,46.17z"/>
		<path class="st0" d="M141.4,46.02c0,0.1-0.04,0.18-0.11,0.24c-0.07,0.06-0.16,0.1-0.26,0.1c-0.16,0-0.27-0.08-0.33-0.23
			l-0.68-1.55h-3.6l-0.69,1.55c-0.06,0.15-0.18,0.23-0.33,0.23c-0.1,0-0.19-0.03-0.27-0.1c-0.08-0.07-0.11-0.15-0.11-0.24
			c0-0.05,0.01-0.1,0.04-0.15l2.73-6.07c0.04-0.09,0.1-0.16,0.17-0.2c0.08-0.04,0.16-0.07,0.25-0.07c0.1,0,0.18,0.02,0.26,0.07
			c0.08,0.05,0.13,0.11,0.17,0.2l2.73,6.07C141.38,45.91,141.4,45.96,141.4,46.02z M136.7,43.93h3.02l-1.52-3.43L136.7,43.93z"/>
		<path class="st0" d="M142.61,46.21c-0.07-0.07-0.11-0.15-0.11-0.26v-6.01c0-0.12,0.03-0.22,0.1-0.29
			c0.07-0.07,0.17-0.11,0.29-0.11c0.12,0,0.22,0.04,0.29,0.11c0.07,0.07,0.11,0.17,0.11,0.29v5.71h3.08c0.11,0,0.2,0.03,0.27,0.09
			c0.06,0.06,0.1,0.14,0.1,0.25c0,0.11-0.03,0.19-0.1,0.25c-0.06,0.06-0.15,0.09-0.27,0.09h-3.48
			C142.78,46.31,142.69,46.27,142.61,46.21z"/>
		<path class="st0" d="M147.77,46.2c-0.07-0.07-0.11-0.16-0.11-0.28v-5.96c0-0.11,0.04-0.21,0.11-0.28c0.07-0.07,0.17-0.1,0.29-0.1
			h3.57c0.11,0,0.2,0.03,0.27,0.09c0.06,0.06,0.1,0.14,0.1,0.24c0,0.1-0.03,0.18-0.1,0.24c-0.06,0.06-0.15,0.09-0.27,0.09h-3.2v2.34
			h3.01c0.11,0,0.2,0.03,0.27,0.09c0.06,0.06,0.1,0.14,0.1,0.24c0,0.1-0.03,0.18-0.1,0.24c-0.06,0.06-0.15,0.09-0.27,0.09h-3.01
			v2.44h3.2c0.11,0,0.2,0.03,0.27,0.08c0.06,0.05,0.1,0.14,0.1,0.24c0,0.1-0.03,0.18-0.1,0.24c-0.06,0.06-0.15,0.09-0.27,0.09h-3.57
			C147.94,46.31,147.84,46.27,147.77,46.2z"/>
	</g>
	<g>
		<path class="st0" d="M20.44,10.03v24.53h-5.16V10.03H6.03V5.46H30.1v4.57H20.44z"/>
		<path class="st0" d="M39.25,17.94c-0.89-0.59-1.86-0.89-2.92-0.89c-1.15,0-2.17,0.52-3.07,1.57c-0.89,1.05-1.34,2.32-1.34,3.84
			v12.11h-4.96V13.29h4.96v1.96c1.39-1.56,3.24-2.34,5.54-2.34c1.69,0,2.99,0.26,3.89,0.78L39.25,17.94z"/>
		<path class="st0" d="M52.89,32.44c-0.45,0.74-1.23,1.33-2.35,1.8c-1.12,0.47-2.29,0.7-3.5,0.7c-2.29,0-4.09-0.57-5.4-1.71
			c-1.31-1.14-1.96-2.77-1.96-4.87c0-2.46,0.92-4.38,2.76-5.77c1.84-1.39,4.46-2.08,7.86-2.08c0.58,0,1.27,0.1,2.06,0.3
			c0-2.5-1.58-3.76-4.73-3.76c-1.86,0-3.42,0.31-4.67,0.94l-1.07-3.87c1.71-0.81,3.74-1.22,6.09-1.22c3.24,0,5.62,0.74,7.12,2.21
			c1.51,1.47,2.26,4.27,2.26,8.38v4.54c0,2.83,0.57,4.61,1.71,5.34c-0.41,0.72-0.87,1.16-1.37,1.32c-0.5,0.17-1.08,0.25-1.73,0.25
			c-0.72,0-1.36-0.26-1.93-0.79C53.47,33.63,53.09,33.06,52.89,32.44z M52.41,24.57c-0.85-0.19-1.48-0.28-1.91-0.28
			c-3.92,0-5.87,1.29-5.87,3.85c0,1.91,1.1,2.86,3.31,2.86c2.98,0,4.46-1.48,4.46-4.45V24.57z"/>
		<path class="st0" d="M70.01,37.98c-0.53,1.41-1.67,2.59-3.41,3.53c-1.75,0.93-3.78,1.4-6.1,1.4v-4.4c3.83,0,5.75-0.96,5.75-2.88
			c0-1.27-0.53-3.21-1.59-5.83l-6.65-16.5h5.13l5.83,14.69l5.3-14.69h5.13L70.01,37.98z"/>
		<path class="st0" d="M79.05,33.18l1.77-3.95C82.3,30.41,83.97,31,85.84,31c1.93,0,2.89-0.69,2.89-2.07c0-0.8-0.29-1.47-0.87-1.98
			c-0.58-0.52-1.71-1.13-3.39-1.83c-3.67-1.52-5.5-3.65-5.5-6.39c0-1.84,0.7-3.27,2.1-4.29c1.4-1.03,3.19-1.54,5.37-1.54
			c2.21,0,4.28,0.5,6.22,1.49l-1.43,3.85c-1.08-0.93-2.59-1.4-4.52-1.4c-1.73,0-2.6,0.69-2.6,2.07c0,0.54,0.29,1.03,0.85,1.47
			c0.57,0.44,1.79,1.03,3.65,1.76c1.87,0.74,3.21,1.63,4.03,2.67c0.82,1.05,1.23,2.31,1.23,3.79c0,1.97-0.73,3.52-2.19,4.65
			c-1.46,1.13-3.45,1.7-5.96,1.7c-1.41,0-2.55-0.12-3.4-0.35C81.48,34.37,80.39,33.89,79.05,33.18z"/>
		<path class="st1" d="M110.68,26.63v7.93h-3.76v-7.93H93.67v-2.26l15.61-19.02h1.4v18.23h2.95v3.05H110.68z M106.91,13.29
			l-8.54,10.29h8.54V13.29z"/>
		<path class="st0" d="M115.43,5.46h3.97v19.93c0,1.77,0.56,3.23,1.69,4.38c1.13,1.14,2.62,1.72,4.48,1.72
			c1.96,0,3.51-0.56,4.64-1.67c1.13-1.11,1.69-2.62,1.69-4.53V5.46h3.97v20.25c0,2.94-0.92,5.24-2.75,6.89
			c-1.84,1.65-4.34,2.47-7.51,2.47c-3.26,0-5.77-0.8-7.54-2.42c-1.76-1.62-2.64-3.94-2.64-6.95V5.46z"/>
		<path class="st0" d="M138.09,33.3l1.33-3.56c2.1,1.37,3.79,2.06,5.07,2.06c2.33,0,3.49-0.98,3.49-2.94c0-1.41-1.12-2.61-3.37-3.62
			c-1.73-0.8-2.9-1.4-3.5-1.81c-0.6-0.41-1.12-0.88-1.57-1.4c-0.44-0.52-0.77-1.08-0.99-1.67c-0.22-0.59-0.33-1.22-0.33-1.9
			c0-1.75,0.63-3.11,1.9-4.09c1.27-0.98,2.93-1.47,4.98-1.47c1.54,0,3.5,0.49,5.85,1.46l-1.07,3.49c-1.49-1.19-3-1.78-4.5-1.78
			c-0.9,0-1.66,0.21-2.27,0.64c-0.61,0.42-0.92,0.96-0.92,1.61c0,1.36,0.77,2.4,2.32,3.1l2.7,1.23c1.65,0.76,2.86,1.62,3.61,2.58
			c0.75,0.96,1.13,2.18,1.13,3.63c0,1.9-0.67,3.4-2,4.48c-1.34,1.08-3.19,1.62-5.55,1.62C142.16,34.97,140.06,34.41,138.09,33.3z"/>
	</g>
</g>
</svg>
