<svg width="101" height="26" viewBox="0 0 101 26" fill="none" xmlns="http://www.w3.org/2000/svg">
<path d="M9.90515 3.22776V20.1737H6.36956V3.22776H0.0195312V0.0705566H16.5356V3.23784H9.91517L9.90515 3.22776Z" fill="#5D5B5B"/>
<path d="M22.7956 8.70496C22.1947 8.29139 21.5236 8.07957 20.7925 8.07957C20.0012 8.07957 19.3001 8.4427 18.6992 9.15887C18.0782 9.87504 17.7777 10.7627 17.7777 11.8117V20.1637H14.3723V5.48724H17.7777V6.83888C18.7192 5.75958 20.0012 5.22498 21.5737 5.22498C22.7355 5.22498 23.6269 5.40654 24.2479 5.75958L22.7956 8.70496Z" fill="#5D5B5B"/>
<path d="M32.1503 18.7112C31.8398 19.2257 31.2989 19.6392 30.5277 19.9519C29.7565 20.2646 28.9652 20.4361 28.1239 20.4361C26.5514 20.4361 25.3295 20.0326 24.418 19.2458C23.5266 18.4591 23.0759 17.3394 23.0759 15.8869C23.0759 14.1923 23.7069 12.8608 24.9689 11.8925C26.2309 10.9242 28.0237 10.4602 30.3574 10.4602C30.7581 10.4602 31.2188 10.5308 31.7697 10.672C31.7697 8.94712 30.688 8.07965 28.5145 8.07965C27.2425 8.07965 26.1708 8.30156 25.3095 8.72521L24.5983 6.06227C25.7602 5.4974 27.1624 5.21497 28.7849 5.21497C31.0085 5.21497 32.641 5.7294 33.6627 6.74817C34.6943 7.76695 35.2151 9.69355 35.2151 12.5381V15.6751C35.2151 17.6219 35.6157 18.8525 36.3769 19.3669C36.0865 19.8611 35.786 20.1638 35.4355 20.2747C35.0949 20.3857 34.6943 20.4361 34.2536 20.4361C33.7628 20.4361 33.3221 20.2545 32.9415 19.9015C32.5409 19.5283 32.2805 19.145 32.1503 18.7112ZM31.8197 13.2744C31.2388 13.1534 30.8081 13.0827 30.5177 13.0827C27.8334 13.0827 26.4813 13.9704 26.4813 15.7457C26.4813 17.057 27.2325 17.7227 28.7549 17.7227C30.7981 17.7227 31.8097 16.7039 31.8097 14.6462V13.2744H31.8197Z" fill="#5D5B5B"/>
<path d="M43.8888 22.5241C43.5182 23.5025 42.747 24.3196 41.5451 24.9551C40.3532 25.6006 38.951 25.9234 37.3584 25.9234V22.8872C39.9926 22.8872 41.2947 22.2215 41.2947 20.9001C41.2947 20.0326 40.9241 18.681 40.213 16.8654L35.6558 5.46716H39.1813L43.1877 15.6146L46.8234 5.46716H50.349L43.8888 22.5241Z" fill="#5D5B5B"/>
<path d="M50.0887 19.2256L51.2906 16.4921C52.3022 17.3091 53.454 17.7227 54.736 17.7227C56.018 17.7227 56.7291 17.2486 56.7291 16.3004C56.7291 15.7457 56.5388 15.2917 56.1282 14.9286C55.7276 14.5655 54.9664 14.1519 53.8145 13.6678C51.3006 12.6187 50.0386 11.1561 50.0386 9.25978C50.0386 7.98883 50.5193 6.99023 51.4809 6.29423C52.4424 5.59824 53.6743 5.23511 55.1667 5.23511C56.659 5.23511 58.1013 5.57806 59.4334 6.25388L58.4619 8.90674C57.7207 8.27126 56.6891 7.9384 55.367 7.9384C54.1851 7.9384 53.5842 8.41248 53.5842 9.36065C53.5842 9.73386 53.7745 10.0768 54.1751 10.3693C54.5757 10.6719 55.397 11.0754 56.6891 11.5798C57.9611 12.0942 58.8826 12.6994 59.4434 13.4156C60.0043 14.1519 60.2948 15.0194 60.2948 16.0382C60.2948 17.3898 59.784 18.4691 58.7824 19.2559C57.7808 20.0427 56.4187 20.426 54.6959 20.426C53.7244 20.426 52.9532 20.3453 52.3622 20.194C51.7713 20.0326 51.0201 19.6997 50.0987 19.2155L50.0887 19.2256Z" fill="#5D5B5B"/>
<path d="M71.7729 14.6966V20.1637H69.1989V14.6966H60.1245V13.1331L70.8114 0H71.7729V12.5784H73.7861V14.6865H71.7729V14.6966ZM69.1989 5.48727L63.3396 12.5985H69.1989V5.48727Z" fill="#FF6600"/>
<path d="M75.0381 0.0705566H77.7524V13.8291C77.7524 15.0597 78.133 16.0684 78.9142 16.8552C79.6854 17.6419 80.707 18.0454 81.9891 18.0454C83.3312 18.0454 84.4029 17.6621 85.1741 16.8854C85.9453 16.1289 86.3359 15.0799 86.3359 13.7686V0.0705566H89.0502V14.0611C89.0502 16.0886 88.4192 17.6823 87.1572 18.812C85.8952 19.9619 84.1825 20.5268 82.0191 20.5268C79.8557 20.5268 78.0528 19.972 76.8509 18.8524C75.649 17.7327 75.0381 16.1289 75.0381 14.051V0.0705566Z" fill="#5D5B5B"/>
<path d="M90.5725 19.3063L91.494 16.8451C92.9362 17.7832 94.0981 18.2673 94.9795 18.2673C96.572 18.2673 97.3632 17.5915 97.3632 16.2399C97.3632 15.2715 96.592 14.4444 95.0496 13.7383C93.8677 13.1835 93.0564 12.77 92.6458 12.4976C92.2351 12.2051 91.8746 11.8924 91.5741 11.5293C91.2736 11.1662 91.0433 10.7829 90.893 10.3794C90.7428 9.9759 90.6727 9.53208 90.6727 9.06808C90.6727 7.86774 91.1134 6.92966 91.9747 6.23367C92.8361 5.55784 93.9779 5.22498 95.3901 5.22498C96.4418 5.22498 97.7939 5.55784 99.3964 6.23367L98.6553 8.65452C97.6237 7.83748 96.602 7.42392 95.5704 7.42392C94.9494 7.42392 94.4286 7.57522 94.0079 7.86774C93.5973 8.14009 93.387 8.5133 93.387 8.95713C93.387 9.89521 93.9178 10.6114 94.9795 11.0956L96.8324 11.9429C97.9742 12.4674 98.7955 13.0625 99.3163 13.7282C99.8371 14.394 100.098 15.2312 100.098 16.2399C100.098 17.5512 99.6468 18.5901 98.7254 19.3365C97.8039 20.083 96.5419 20.4562 94.9094 20.4562C93.3769 20.4562 91.9347 20.0729 90.5725 19.3063Z" fill="#5D5B5B"/>
</svg>
