<svg width="20" height="16" viewBox="0 0 20 16" fill="none" xmlns="http://www.w3.org/2000/svg">
<g clip-path="url(#clip0_28_21)">
<path d="M19.23 2.89L16.2 11.5H7.5L3.63 0.5H0.5" stroke="#5D5B5B" stroke-linecap="round" stroke-linejoin="round"/>
<path d="M8 15C8.55228 15 9 14.5523 9 14C9 13.4477 8.55228 13 8 13C7.44772 13 7 13.4477 7 14C7 14.5523 7.44772 15 8 15Z" stroke="#5D5B5B" stroke-linecap="round" stroke-linejoin="round"/>
<path d="M16 15C16.5523 15 17 14.5523 17 14C17 13.4477 16.5523 13 16 13C15.4477 13 15 13.4477 15 14C15 14.5523 15.4477 15 16 15Z" stroke="#5D5B5B" stroke-linecap="round" stroke-linejoin="round"/>
<path d="M6.95001 4H16.84" stroke="#5D5B5B" stroke-linecap="round" stroke-linejoin="round"/>
<path d="M7.70999 6H16.13" stroke="#5D5B5B" stroke-linecap="round" stroke-linejoin="round"/>
<path d="M8.29999 8H15.44" stroke="#5D5B5B" stroke-linecap="round" stroke-linejoin="round"/>
</g>
<defs>
<clipPath id="clip0_28_21">
<rect width="19.73" height="15.5" fill="white"/>
</clipPath>
</defs>
</svg>
