<svg width="52" height="41" viewBox="0 0 52 41" fill="none" xmlns="http://www.w3.org/2000/svg">
<g id="top_menu" clip-path="url(#clip0_2039_221)">
<path id="Vector" d="M50.6818 7.6442L42.696 30.419H19.7664L9.56675 1.32227H1.31738" stroke="#5D5B5B" stroke-width="3" stroke-linecap="round" stroke-linejoin="round"/>
<path id="Vector_2" d="M21.0848 39.677C22.5404 39.677 23.7204 38.4928 23.7204 37.0319C23.7204 35.571 22.5404 34.3867 21.0848 34.3867C19.6292 34.3867 18.4492 35.571 18.4492 37.0319C18.4492 38.4928 19.6292 39.677 21.0848 39.677Z" stroke="#5D5B5B" stroke-width="3" stroke-linecap="round" stroke-linejoin="round"/>
<path id="Vector_3" d="M42.1698 39.677C43.6254 39.677 44.8053 38.4928 44.8053 37.0319C44.8053 35.571 43.6254 34.3867 42.1698 34.3867C40.7142 34.3867 39.5342 35.571 39.5342 37.0319C39.5342 38.4928 40.7142 39.677 42.1698 39.677Z" stroke="#5D5B5B" stroke-width="3" stroke-linecap="round" stroke-linejoin="round"/>
<path id="Vector_4" d="M18.3174 10.5801H44.3833" stroke="#FF6600" stroke-width="3" stroke-linecap="round" stroke-linejoin="round"/>
<path id="Vector_5" d="M20.3203 15.8711H42.5119" stroke="#FF6600" stroke-width="3" stroke-linecap="round" stroke-linejoin="round"/>
<path id="Vector_6" d="M21.875 21.1621H40.693" stroke="#FF6600" stroke-width="3" stroke-linecap="round" stroke-linejoin="round"/>
</g>
<defs>
<clipPath id="clip0_2039_221">
<rect width="52" height="41" fill="white"/>
</clipPath>
</defs>
</svg>
