<svg width="38" height="30" viewBox="0 0 38 30" fill="none" xmlns="http://www.w3.org/2000/svg">
<g clip-path="url(#clip0_2391_980)">
<path d="M37.0369 5.5926L31.2011 22.2571H14.4449L6.99127 0.966797H0.962891" stroke="#5D5B5B" stroke-width="2" stroke-linecap="round" stroke-linejoin="round"/>
<path d="M15.4084 29.0331C16.4721 29.0331 17.3344 28.1665 17.3344 27.0976C17.3344 26.0287 16.4721 25.1621 15.4084 25.1621C14.3447 25.1621 13.4824 26.0287 13.4824 27.0976C13.4824 28.1665 14.3447 29.0331 15.4084 29.0331Z" stroke="#5D5B5B" stroke-width="2" stroke-linecap="round" stroke-linejoin="round"/>
<path d="M30.8156 29.0331C31.8794 29.0331 32.7417 28.1665 32.7417 27.0976C32.7417 26.0287 31.8794 25.1621 30.8156 25.1621C29.7519 25.1621 28.8896 26.0287 28.8896 27.0976C28.8896 28.1665 29.7519 29.0331 30.8156 29.0331Z" stroke="#5D5B5B" stroke-width="2" stroke-linecap="round" stroke-linejoin="round"/>
</g>
<defs>
<clipPath id="clip0_2391_980">
<rect width="38" height="30" fill="white"/>
</clipPath>
</defs>
</svg>
