<svg width="34" height="34" viewBox="0 0 34 34" fill="none" xmlns="http://www.w3.org/2000/svg">
<path d="M34 17C34 7.61124 26.3888 0 17 0C7.61124 0 0 7.61124 0 17C0 24.9723 5.48896 31.6622 12.8935 33.4995V22.1952H9.38808V17H12.8935V14.7614C12.8935 8.97532 15.5122 6.2934 21.1929 6.2934C22.27 6.2934 24.1284 6.50488 24.8887 6.71568V11.4247C24.4875 11.3825 23.7905 11.3614 22.9248 11.3614C20.1375 11.3614 19.0604 12.4175 19.0604 15.1626V17H24.6133L23.6592 22.1952H19.0604V33.8756C27.4781 32.859 34.0007 25.6918 34.0007 17H34Z" fill="#0866FF"/>
<path d="M23.6598 22.1948L24.6139 16.9996H19.061V15.1622C19.061 12.417 20.1381 11.361 22.9254 11.361C23.7911 11.361 24.4881 11.3821 24.8893 11.4242V6.71525C24.129 6.50377 22.2706 6.29297 21.1935 6.29297C15.5128 6.29297 12.8941 8.97489 12.8941 14.761V16.9996H9.38867V22.1948H12.8941V33.4991C14.2092 33.8255 15.5848 33.9996 17.0006 33.9996C17.6976 33.9996 18.3851 33.9567 19.0603 33.8751V22.1948H23.6592H23.6598Z" fill="white"/>
</svg>
