<?xml version="1.0" encoding="utf-8"?>
<!-- Generator: Adobe Illustrator 28.3.0, SVG Export Plug-In . SVG Version: 6.00 Build 0)  -->
<svg version="1.1" id="Layer_1" xmlns="http://www.w3.org/2000/svg" xmlns:xlink="http://www.w3.org/1999/xlink" x="0px" y="0px"
	 viewBox="0 0 175 40" style="enable-background:new 0 0 175 40;" xml:space="preserve">
<style type="text/css">
	.st0{fill:#F2F2F2;}
	.st1{fill:#0866FF;}
	.st2{fill:#FFFFFF;}
</style>
<g>
	<path class="st0" d="M20,0h135c11.1,0,20,9,20,20s-8.9,20-20,20H20C9,40,0,31,0,20S9,0,20,0z"/>
	<path class="st1" d="M32.2,20c0-5.8-4.7-10.6-10.6-10.6S11.1,14.2,11.1,20c0,5,3.4,9.1,8,10.2v-7h-2.2V20h2.2v-1.4
		c0-3.6,1.6-5.3,5.2-5.3c0.7,0,1.8,0.1,2.3,0.3v2.9c-0.2,0-0.7,0-1.2,0c-1.7,0-2.4,0.7-2.4,2.4V20h3.4l-0.6,3.2h-2.9v7.3
		C28.2,29.8,32.2,25.4,32.2,20L32.2,20z"/>
	<path class="st2" d="M25.8,23.2l0.6-3.2h-3.4v-1.1c0-1.7,0.7-2.4,2.4-2.4c0.5,0,1,0,1.2,0v-2.9c-0.5-0.1-1.6-0.3-2.3-0.3
		c-3.5,0-5.2,1.7-5.2,5.3V20h-2.2v3.2h2.2v7c0.8,0.2,1.7,0.3,2.5,0.3c0.4,0,0.9,0,1.3-0.1v-7.3H25.8L25.8,23.2z"/>
	<path d="M46.2,22.2c0,0.7-0.3,1.3-0.8,1.7c-0.5,0.4-1.2,0.6-2.2,0.6c-0.8,0-1.6-0.2-2.2-0.5v-1.6c0.4,0.2,0.8,0.3,1.2,0.5
		c0.4,0.1,0.8,0.2,1.2,0.2c0.4,0,0.7-0.1,0.9-0.2c0.2-0.2,0.3-0.4,0.3-0.6c0-0.2-0.1-0.4-0.2-0.5c-0.1-0.1-0.3-0.3-0.5-0.4
		c-0.2-0.1-0.5-0.3-0.8-0.4c-0.2-0.1-0.4-0.2-0.6-0.3c-0.2-0.1-0.4-0.3-0.6-0.5c-0.2-0.2-0.4-0.4-0.5-0.7c-0.1-0.3-0.2-0.6-0.2-0.9
		c0-0.7,0.2-1.3,0.7-1.7c0.5-0.4,1.1-0.6,2-0.6c0.4,0,0.8,0,1.2,0.1c0.4,0.1,0.8,0.2,1.2,0.4l-0.5,1.3c-0.4-0.1-0.7-0.3-1-0.3
		c-0.3-0.1-0.6-0.1-0.9-0.1c-0.3,0-0.6,0.1-0.7,0.2c-0.2,0.1-0.3,0.3-0.3,0.6c0,0.3,0.1,0.5,0.4,0.7c0.3,0.2,0.6,0.4,1.1,0.6
		c0.4,0.2,0.8,0.4,1,0.6c0.3,0.2,0.5,0.5,0.7,0.7C46.2,21.5,46.2,21.8,46.2,22.2z M48.4,16c0.2,0,0.5,0.1,0.6,0.2
		c0.2,0.1,0.3,0.3,0.3,0.6c0,0.3-0.1,0.5-0.3,0.6c-0.2,0.1-0.4,0.2-0.6,0.2c-0.3,0-0.5-0.1-0.6-0.2c-0.2-0.1-0.3-0.3-0.3-0.6
		c0-0.3,0.1-0.5,0.3-0.6C47.9,16.1,48.1,16,48.4,16z M49.2,18.4v6.1h-1.7v-6.1H49.2z M52.9,18.3c0.7,0,1.3,0.3,1.8,0.9h0l0.1-0.8
		h1.4v6.1c0,0.9-0.3,1.5-0.8,2c-0.5,0.5-1.3,0.7-2.3,0.7c-0.4,0-0.8,0-1.2-0.1c-0.4-0.1-0.7-0.1-1.1-0.3v-1.3
		c0.7,0.3,1.5,0.5,2.4,0.5c0.9,0,1.3-0.5,1.3-1.4v-0.1c0-0.1,0-0.2,0-0.4c0-0.1,0-0.3,0-0.4h0c-0.2,0.3-0.5,0.5-0.7,0.7
		c-0.3,0.1-0.6,0.2-1,0.2c-0.7,0-1.3-0.3-1.7-0.8c-0.4-0.6-0.6-1.3-0.6-2.3c0-1,0.2-1.8,0.6-2.3C51.6,18.5,52.2,18.3,52.9,18.3z
		 M53.4,19.6c-0.8,0-1.2,0.6-1.2,1.8c0,1.2,0.4,1.8,1.2,1.8c0.4,0,0.7-0.1,0.9-0.4c0.2-0.2,0.3-0.7,0.3-1.3v-0.2
		c0-0.7-0.1-1.1-0.3-1.4C54.2,19.8,53.9,19.6,53.4,19.6z M61.4,18.3c0.7,0,1.2,0.2,1.6,0.5c0.4,0.3,0.6,0.9,0.6,1.7v4h-1.7v-3.5
		c0-0.4-0.1-0.8-0.2-1c-0.2-0.2-0.4-0.3-0.7-0.3c-0.5,0-0.8,0.2-1,0.5c-0.2,0.3-0.3,0.8-0.3,1.5v2.9H58v-6.1h1.3l0.2,0.8h0.1
		c0.2-0.3,0.5-0.5,0.8-0.7C60.7,18.3,61,18.3,61.4,18.3z M69,16c0.2,0,0.5,0.1,0.6,0.2c0.2,0.1,0.3,0.3,0.3,0.6
		c0,0.3-0.1,0.5-0.3,0.6c-0.2,0.1-0.4,0.2-0.6,0.2c-0.3,0-0.5-0.1-0.6-0.2c-0.2-0.1-0.3-0.3-0.3-0.6c0-0.3,0.1-0.5,0.3-0.6
		C68.5,16.1,68.7,16,69,16z M69.8,18.4v6.1h-1.7v-6.1H69.8z M75,18.3c0.7,0,1.2,0.2,1.6,0.5c0.4,0.3,0.6,0.9,0.6,1.7v4h-1.7v-3.5
		c0-0.4-0.1-0.8-0.2-1c-0.2-0.2-0.4-0.3-0.7-0.3c-0.5,0-0.8,0.2-1,0.5c-0.2,0.3-0.3,0.8-0.3,1.5v2.9h-1.7v-6.1h1.3l0.2,0.8h0.1
		c0.2-0.3,0.5-0.5,0.8-0.7C74.2,18.3,74.6,18.3,75,18.3z M86.7,24.4l-0.5-2.1c0-0.1-0.1-0.3-0.1-0.6c-0.1-0.3-0.1-0.5-0.2-0.8
		c-0.1-0.3-0.1-0.6-0.2-0.8c-0.1-0.2-0.1-0.4-0.1-0.5h0c0,0.1-0.1,0.3-0.1,0.5c-0.1,0.2-0.1,0.5-0.2,0.8c-0.1,0.3-0.1,0.5-0.2,0.8
		C85,22,85,22.2,85,22.3l-0.5,2.1h-1.8L81,18.4h1.6l0.7,2.7c0.1,0.2,0.1,0.4,0.1,0.7c0,0.3,0.1,0.5,0.1,0.7c0,0.2,0.1,0.4,0.1,0.6h0
		c0-0.1,0-0.2,0-0.4c0-0.2,0-0.4,0.1-0.5c0-0.2,0.1-0.4,0.1-0.5c0-0.1,0.1-0.3,0.1-0.3l0.7-2.9h1.8l0.7,2.9c0,0.1,0.1,0.3,0.1,0.5
		c0,0.2,0.1,0.5,0.1,0.7c0,0.2,0,0.4,0.1,0.6h0c0-0.1,0-0.3,0.1-0.5c0-0.2,0.1-0.5,0.1-0.8c0.1-0.3,0.1-0.5,0.2-0.7l0.7-2.7h1.6
		l-1.7,6.1H86.7z M92.1,16c0.2,0,0.5,0.1,0.6,0.2c0.2,0.1,0.3,0.3,0.3,0.6c0,0.3-0.1,0.5-0.3,0.6c-0.2,0.1-0.4,0.2-0.6,0.2
		c-0.3,0-0.5-0.1-0.6-0.2c-0.2-0.1-0.3-0.3-0.3-0.6c0-0.3,0.1-0.5,0.3-0.6C91.6,16.1,91.8,16,92.1,16z M92.9,18.4v6.1h-1.7v-6.1
		H92.9z M97.2,23.2c0.2,0,0.4,0,0.5,0c0.2,0,0.3-0.1,0.5-0.1v1.2c-0.2,0.1-0.4,0.1-0.7,0.2c-0.3,0.1-0.5,0.1-0.9,0.1
		c-0.4,0-0.7-0.1-1-0.2c-0.3-0.1-0.5-0.3-0.7-0.6c-0.2-0.3-0.2-0.7-0.2-1.2v-2.9H94v-0.7l0.9-0.6l0.5-1.3h1.1v1.3h1.7v1.2h-1.7v2.9
		c0,0.2,0.1,0.4,0.2,0.5C96.8,23.2,97,23.2,97.2,23.2z M101.1,16v1.7c0,0.3,0,0.6,0,0.9c0,0.3,0,0.5,0,0.6h0.1
		c0.2-0.3,0.4-0.5,0.7-0.7c0.3-0.1,0.6-0.2,1-0.2c0.7,0,1.2,0.2,1.6,0.5c0.4,0.3,0.6,0.9,0.6,1.7v4h-1.7v-3.5c0-0.9-0.3-1.3-1-1.3
		c-0.5,0-0.8,0.2-1,0.5c-0.2,0.3-0.3,0.8-0.3,1.5v2.9h-1.7V16H101.1z M111.4,24.4h-1.7v-7.9h4.5v1.4h-2.9v2h2.7v1.4h-2.7V24.4z
		 M118.2,18.3c0.8,0,1.4,0.2,1.9,0.5c0.4,0.3,0.7,0.9,0.7,1.6v4h-1.2l-0.3-0.8h0c-0.3,0.3-0.5,0.6-0.8,0.7c-0.3,0.1-0.7,0.2-1.2,0.2
		c-0.5,0-1-0.2-1.3-0.5c-0.4-0.3-0.5-0.8-0.5-1.5c0-0.6,0.2-1.1,0.7-1.4s1.1-0.5,2-0.5l1.1,0v-0.3c0-0.3-0.1-0.6-0.3-0.7
		c-0.2-0.1-0.4-0.2-0.7-0.2c-0.3,0-0.6,0-0.9,0.1c-0.3,0.1-0.6,0.2-0.8,0.3l-0.5-1.1c0.3-0.2,0.7-0.3,1.1-0.4
		C117.4,18.3,117.8,18.3,118.2,18.3z M119.1,21.6l-0.6,0c-0.5,0-0.9,0.1-1.1,0.3c-0.2,0.2-0.3,0.4-0.3,0.7c0,0.3,0.1,0.4,0.2,0.5
		c0.1,0.1,0.3,0.2,0.6,0.2c0.4,0,0.7-0.1,0.9-0.3c0.2-0.2,0.4-0.5,0.4-0.9V21.6z M124.9,24.6c-0.9,0-1.6-0.2-2.1-0.7
		c-0.5-0.5-0.7-1.3-0.7-2.4c0-0.7,0.1-1.3,0.4-1.8c0.3-0.5,0.6-0.8,1-1c0.5-0.2,1-0.3,1.6-0.3c0.4,0,0.8,0,1.1,0.1
		c0.3,0.1,0.6,0.2,0.8,0.3l-0.5,1.3c-0.3-0.1-0.5-0.2-0.7-0.3c-0.2-0.1-0.4-0.1-0.7-0.1c-0.9,0-1.3,0.6-1.3,1.8
		c0,0.6,0.1,1.1,0.3,1.3c0.2,0.3,0.5,0.4,1,0.4c0.3,0,0.7,0,0.9-0.1c0.3-0.1,0.5-0.2,0.8-0.4v1.4c-0.3,0.2-0.5,0.3-0.8,0.3
		C125.7,24.5,125.3,24.6,124.9,24.6z M130.6,18.3c0.8,0,1.5,0.2,2,0.7c0.5,0.5,0.7,1.2,0.7,2v0.8h-3.9c0,0.5,0.2,0.8,0.4,1.1
		c0.3,0.3,0.6,0.4,1.1,0.4c0.4,0,0.7,0,1.1-0.1c0.3-0.1,0.7-0.2,1-0.4v1.3c-0.3,0.1-0.6,0.3-0.9,0.3c-0.3,0.1-0.7,0.1-1.2,0.1
		c-0.6,0-1.1-0.1-1.6-0.3c-0.5-0.2-0.8-0.6-1.1-1c-0.3-0.5-0.4-1-0.4-1.7s0.1-1.3,0.4-1.8c0.2-0.5,0.6-0.8,1-1.1
		C129.6,18.4,130.1,18.3,130.6,18.3z M130.7,19.4c-0.3,0-0.6,0.1-0.8,0.3c-0.2,0.2-0.3,0.5-0.4,1h2.3c0-0.4-0.1-0.7-0.3-0.9
		C131.3,19.6,131,19.4,130.7,19.4z M136.4,16v2c0,0.2,0,0.5,0,0.7c0,0.2,0,0.4,0,0.5h0.1c0.2-0.3,0.4-0.5,0.7-0.6
		c0.3-0.2,0.6-0.3,1.1-0.3c0.7,0,1.2,0.3,1.7,0.8c0.4,0.5,0.6,1.3,0.6,2.3c0,1-0.2,1.8-0.6,2.4c-0.4,0.5-1,0.8-1.7,0.8
		c-0.4,0-0.8-0.1-1.1-0.2c-0.3-0.2-0.5-0.3-0.6-0.5h-0.1l-0.3,0.7h-1.3V16H136.4z M137.6,19.6c-0.4,0-0.7,0.1-0.9,0.4
		c-0.2,0.3-0.3,0.7-0.3,1.2v0.2c0,0.6,0.1,1,0.3,1.4c0.2,0.3,0.5,0.5,1,0.5c0.3,0,0.6-0.2,0.8-0.5c0.2-0.3,0.3-0.8,0.3-1.4
		s-0.1-1-0.3-1.3C138.2,19.7,137.9,19.6,137.6,19.6z M147.2,21.4c0,1-0.3,1.8-0.8,2.3c-0.5,0.5-1.2,0.8-2.2,0.8
		c-0.6,0-1.1-0.1-1.5-0.4c-0.4-0.2-0.8-0.6-1-1.1c-0.3-0.5-0.4-1-0.4-1.7c0-1,0.3-1.8,0.8-2.3c0.5-0.5,1.2-0.8,2.2-0.8
		c0.6,0,1.1,0.1,1.5,0.4c0.4,0.2,0.8,0.6,1,1.1C147.1,20.2,147.2,20.7,147.2,21.4z M143.1,21.4c0,0.6,0.1,1.1,0.3,1.4
		c0.2,0.3,0.5,0.5,1,0.5c0.4,0,0.8-0.2,0.9-0.5c0.2-0.3,0.3-0.8,0.3-1.4s-0.1-1-0.3-1.3c-0.2-0.3-0.5-0.5-1-0.5
		c-0.4,0-0.8,0.2-1,0.5C143.2,20.4,143.1,20.8,143.1,21.4z M154.1,21.4c0,1-0.3,1.8-0.8,2.3c-0.5,0.5-1.2,0.8-2.2,0.8
		c-0.6,0-1.1-0.1-1.5-0.4c-0.4-0.2-0.8-0.6-1-1.1c-0.3-0.5-0.4-1-0.4-1.7c0-1,0.3-1.8,0.8-2.3c0.5-0.5,1.2-0.8,2.2-0.8
		c0.6,0,1.1,0.1,1.5,0.4c0.4,0.2,0.8,0.6,1,1.1C154,20.2,154.1,20.7,154.1,21.4z M149.9,21.4c0,0.6,0.1,1.1,0.3,1.4
		c0.2,0.3,0.5,0.5,1,0.5c0.4,0,0.8-0.2,0.9-0.5c0.2-0.3,0.3-0.8,0.3-1.4s-0.1-1-0.3-1.3c-0.2-0.3-0.5-0.5-1-0.5
		c-0.4,0-0.8,0.2-1,0.5C150,20.4,149.9,20.8,149.9,21.4z M157.2,16v3.8c0,0.2,0,0.5,0,0.7c0,0.2,0,0.4-0.1,0.7h0
		c0.1-0.2,0.2-0.3,0.3-0.5c0.1-0.2,0.2-0.3,0.4-0.5l1.7-1.8h1.9L159,21l2.6,3.4h-1.9l-1.7-2.5l-0.7,0.6v1.9h-1.7V16H157.2z"/>
</g>
</svg>
