<svg width="101" height="26" viewBox="0 0 101 26" fill="none" xmlns="http://www.w3.org/2000/svg">
<path d="M9.88562 3.22751V20.1735H6.35003V3.22751H0V0.0703125H16.5161V3.2376H9.89564L9.88562 3.22751Z" fill="#5D5B5B"/>
<path d="M22.7758 8.70654C22.1749 8.29298 21.5038 8.08116 20.7727 8.08116C19.9814 8.08116 19.2803 8.44428 18.6794 9.16045C18.0584 9.87662 17.7579 10.7643 17.7579 11.8133V20.1653H14.3525V5.48882H17.7579V6.84047C18.6994 5.76117 19.9814 5.22656 21.5539 5.22656C22.7158 5.22656 23.6072 5.40813 24.2281 5.76117L22.7758 8.70654Z" fill="#5D5B5B"/>
<path d="M32.131 18.7111C31.8205 19.2255 31.2796 19.6391 30.5084 19.9518C29.7372 20.2645 28.9459 20.436 28.1046 20.436C26.5321 20.436 25.3102 20.0325 24.3988 19.2457C23.5074 18.4589 23.0566 17.3393 23.0566 15.8868C23.0566 14.1922 23.6876 12.8607 24.9496 11.8924C26.2116 10.924 28.0045 10.46 30.3381 10.46C30.7388 10.46 31.1995 10.5306 31.7504 10.6719C31.7504 8.947 30.6687 8.07952 28.4952 8.07952C27.2232 8.07952 26.1515 8.30143 25.2902 8.72508L24.579 6.06214C25.7409 5.49728 27.1431 5.21484 28.7657 5.21484C30.9892 5.21484 32.6218 5.72928 33.6434 6.74805C34.675 7.76683 35.1958 9.69343 35.1958 12.5379V15.675C35.1958 17.6217 35.5965 18.8523 36.3577 19.3668C36.0672 19.861 35.7667 20.1636 35.4162 20.2746C35.0756 20.3855 34.675 20.436 34.2343 20.436C33.7435 20.436 33.3028 20.2544 32.9222 19.9014C32.5216 19.5282 32.2612 19.1449 32.131 18.7111ZM31.8005 13.2743C31.2195 13.1532 30.7889 13.0826 30.4984 13.0826C27.8142 13.0826 26.462 13.9703 26.462 15.7456C26.462 17.0569 27.2132 17.7226 28.7356 17.7226C30.7788 17.7226 31.7904 16.7038 31.7904 14.6461V13.2743H31.8005Z" fill="#5D5B5B"/>
<path d="M43.8692 22.5257C43.4987 23.5041 42.7274 24.3212 41.5255 24.9566C40.3337 25.6022 38.9314 25.925 37.3389 25.925V22.8888C39.9731 22.8888 41.2751 22.2231 41.2751 20.9017C41.2751 20.0342 40.9046 18.6826 40.1934 16.8669L35.6362 5.46875H39.1618L43.1681 15.6162L46.8039 5.46875H50.3294L43.8692 22.5257Z" fill="#5D5B5B"/>
<path d="M50.0691 19.2249L51.271 16.4914C52.2826 17.3084 53.4344 17.722 54.7165 17.722C55.9985 17.722 56.7096 17.2479 56.7096 16.2997C56.7096 15.7449 56.5193 15.291 56.1087 14.9279C55.708 14.5648 54.9468 14.1512 53.795 13.667C51.281 12.618 50.019 11.1554 50.019 9.25905C50.019 7.9881 50.4998 6.9895 51.4613 6.2935C52.4228 5.5975 53.6548 5.23438 55.1471 5.23438C56.6395 5.23438 58.0818 5.57733 59.4139 6.25315L58.4424 8.90601C57.7012 8.27053 56.6696 7.93766 55.3475 7.93766C54.1656 7.93766 53.5646 8.41175 53.5646 9.35992C53.5646 9.73313 53.7549 10.0761 54.1556 10.3686C54.5562 10.6712 55.3775 11.0747 56.6696 11.579C57.9416 12.0935 58.863 12.6987 59.4239 13.4149C59.9848 14.1512 60.2752 15.0187 60.2752 16.0374C60.2752 17.3891 59.7644 18.4684 58.7629 19.2552C57.7613 20.0419 56.3991 20.4252 54.6764 20.4252C53.7049 20.4252 52.9336 20.3446 52.3427 20.1932C51.7518 20.0319 51.0006 19.699 50.0791 19.2148L50.0691 19.2249Z" fill="#5D5B5B"/>
<path d="M71.7534 14.6966V20.1637H69.1793V14.6966H60.105V13.1331L70.7919 0H71.7534V12.5784H73.7666V14.6865H71.7534V14.6966ZM69.1793 5.48727L63.3201 12.5985H69.1793V5.48727Z" fill="#FF6600"/>
<path d="M75.0186 0.0703125H77.7328V13.8288C77.7328 15.0594 78.1134 16.0681 78.8947 16.8549C79.6659 17.6417 80.6875 18.0452 81.9695 18.0452C83.3117 18.0452 84.3833 17.6619 85.1546 16.8852C85.9258 16.1287 86.3164 15.0796 86.3164 13.7683V0.0703125H89.0307V14.0608C89.0307 16.0883 88.3997 17.682 87.1377 18.8118C85.8757 19.9617 84.163 20.5265 81.9996 20.5265C79.8362 20.5265 78.0333 19.9718 76.8314 18.8521C75.6295 17.7325 75.0186 16.1287 75.0186 14.0508V0.0703125Z" fill="#5D5B5B"/>
<path d="M90.5532 19.3079L91.4747 16.8467C92.917 17.7848 94.0788 18.2689 94.9602 18.2689C96.5527 18.2689 97.344 17.5931 97.344 16.2415C97.344 15.2731 96.5727 14.446 95.0303 13.7399C93.8484 13.1851 93.0371 12.7716 92.6265 12.4992C92.2158 12.2067 91.8553 11.894 91.5548 11.5309C91.2543 11.1677 91.024 10.7844 90.8737 10.381C90.7235 9.97749 90.6534 9.53367 90.6534 9.06967C90.6534 7.86933 91.0941 6.93125 91.9554 6.23525C92.8168 5.55943 93.9586 5.22656 95.3708 5.22656C96.4225 5.22656 97.7746 5.55943 99.3772 6.23525L98.636 8.65611C97.6044 7.83907 96.5827 7.42551 95.5511 7.42551C94.9301 7.42551 94.4093 7.57681 93.9886 7.86933C93.578 8.14168 93.3677 8.51489 93.3677 8.95872C93.3677 9.8968 93.8985 10.613 94.9602 11.0971L96.8131 11.9444C97.9549 12.469 98.7762 13.0641 99.297 13.7298C99.8179 14.3956 100.078 15.2328 100.078 16.2415C100.078 17.5528 99.6276 18.5917 98.7061 19.3381C97.7846 20.0846 96.5226 20.4578 94.8901 20.4578C93.3576 20.4578 91.9154 20.0745 90.5532 19.3079Z" fill="#5D5B5B"/>
</svg>
