<svg width="20" height="20" viewBox="0 0 20 20" fill="none" xmlns="http://www.w3.org/2000/svg">
<mask id="mask0_4064_282" style="mask-type:luminance" maskUnits="userSpaceOnUse" x="0" y="0" width="20" height="20">
<path d="M20 0H0V20H20V0Z" fill="white"/>
</mask>
<g mask="url(#mask0_4064_282)">
<path d="M19.6 10.2336C19.6 9.52359 19.54 8.84359 19.42 8.18359H10V12.0536H15.38C15.15 13.3036 14.44 14.3636 13.38 15.0736V17.5836H16.61C18.5 15.8436 19.59 13.2836 19.59 10.2336H19.6Z" fill="#4285F4"/>
<path d="M10.0005 20.0023C12.7005 20.0023 14.9605 19.1023 16.6205 17.5823L13.3905 15.0723C12.4905 15.6723 11.3505 16.0223 10.0005 16.0223C7.40055 16.0223 5.19055 14.2623 4.40055 11.9023H1.06055V14.4923C2.71055 17.7623 6.09055 20.0023 10.0005 20.0023Z" fill="#34A853"/>
<path d="M4.4 11.9017C4.2 11.3017 4.09 10.6617 4.09 10.0017C4.09 9.34172 4.2 8.70172 4.4 8.10172V5.51172H1.06C0.38 6.86172 0 8.39172 0 10.0017C0 11.6117 0.39 13.1417 1.06 14.4917L4.4 11.9017Z" fill="#FBBC04"/>
<path d="M10.0005 3.98172C11.4705 3.98172 12.7905 4.48172 13.8205 5.48172L16.6905 2.61172C14.9605 1.00172 12.6905 0.0117188 10.0005 0.0117188C6.09055 0.0117188 2.71055 2.25172 1.06055 5.52172L4.40055 8.11172C5.19055 5.75172 7.39055 3.99172 10.0005 3.99172V3.98172Z" fill="#E94235"/>
</g>
</svg>
