<svg width="182" height="53" viewBox="0 0 182 53" fill="none" xmlns="http://www.w3.org/2000/svg">
<g id="letters">
<path id="Vector" d="M24.32 23.52C35.41 39.72 44.24 44.59 50.14 44.59C50.93 44.59 51.98 44.59 52.68 44.44V52.47C50.84 52.77 49.27 52.73 47.7 52.73C37.71 52.73 30.46 45.15 17.55 29.1L8.89 35.93V52.31H0V0H8.89V25.5L39.88 0H52.59L24.31 23.52H24.32Z" fill="#2C3E76"/>
<path id="Vector_2" d="M42.2299 20.14C42.1199 16.84 44.1199 14.71 47.2599 14.61C50.3999 14.51 52.6399 16.61 52.7399 19.69C52.8399 22.94 50.7399 25.07 47.6599 25.17C44.4599 25.27 42.3399 23.23 42.2399 20.14" fill="#2C3E76"/>
<path id="Vector_3" d="M150.97 41.26H149.06V49.62L141.7 41.26H139.78V52.49H141.69V44.22L149.03 52.49H150.97V41.26ZM116.46 41.26H114.55V52.48H116.46V41.26ZM99.81 44.35C99.81 43.25 101.58 42.63 103.15 42.63C104.82 42.63 106.64 43.17 107.12 44.86L108.71 44.24C108.34 41.71 105.69 40.88 103.17 40.88C100.65 40.88 97.58 41.91 97.58 44.54C97.58 49.4 106.86 46.21 106.86 49.1C106.86 50.65 104.46 50.92 103.15 50.92C101.68 50.92 99.91 50.67 99.2 48.79L97.51 49.6C98.15 52.64 101.46 52.91 103.35 52.91C105.83 52.91 108.95 52.02 108.95 48.94C108.95 44.18 99.8 47.02 99.8 44.35M92.99 50.63H84.38V47.68H91.27V45.76H84.38V43.16H92.67V41.27H82.49V52.5H92.99V50.64V50.63ZM67.56 50.7V43.12L70.62 43.1C73.2 43.1 74.77 44.42 74.77 46.61C74.77 49.02 73.22 50.69 70.6 50.69H67.56V50.7ZM71.22 41.25L65.65 41.27V52.5H71.2C74.63 52.5 76.84 49.97 76.84 46.56C76.84 43.42 74.56 41.26 71.22 41.26" fill="#2C3E76"/>
<path id="Vector_4" d="M181.2 20.75H179.29V29.11L171.93 20.75H170.01V31.97H171.92V23.7L179.26 31.97H181.2V20.75ZM158.37 22.83H158.69L160.66 26.91H156.39L158.36 22.83H158.37ZM163.11 31.98H165.24L159.75 20.76H157.3L151.81 31.98H153.94C154.51 30.82 155.04 29.73 155.49 28.77H161.55L163.1 31.98H163.11ZM147.87 23.66C147.05 21.18 144.63 20.4 142.43 20.4C138.89 20.4 136.23 22.51 136.23 26.31C136.23 29.82 138.76 32.35 142.36 32.35C145.96 32.35 148.47 30.19 148.35 25.75H142.43V27.46H146.33C145.96 29.3 144.54 30.41 142.62 30.41C140.12 30.41 138.3 28.89 138.3 26.31C138.3 23.73 139.9 22.29 142.38 22.29C143.83 22.29 145.43 22.83 146.13 24.32M130.59 20.75H128.68V31.97H130.59V20.75ZM123.7 30.12H115.88V20.75H113.97V31.97H123.69V30.11L123.7 30.12ZM108.99 30.12H101.17V20.75H99.2599V31.97H108.98V30.11L108.99 30.12ZM93.8799 30.12H85.2699V27.17H92.1599V25.25H85.2699V22.65H93.5599V20.76H83.3799V31.98H93.8799V30.12ZM76.8599 20.75H74.9499V29.11L67.5899 20.75H65.6699V31.97H67.5799V23.7L74.9199 31.97H76.8599V20.75Z" fill="#2C3E76"/>
<path id="Vector_5" d="M124.14 9.61001H115.53V6.66001H122.42V4.74001H115.53V2.14001H123.82V0.240005H113.64V11.46H124.14V9.60001V9.61001ZM108.63 0.240005H96.75V2.13001H101.73V11.46H103.64V2.13001H108.64V0.240005H108.63ZM87.64 2.32001H87.96L89.93 6.40001H85.66L87.64 2.32001ZM92.38 11.47H94.51L89.03 0.240005H86.58L81.09 11.46H83.22C83.79 10.3 84.32 9.21001 84.77 8.25001H90.83L92.38 11.46V11.47ZM77.58 0.240005H75.01L67.55 6.20001V0.240005H65.64V11.46H67.55V8.27001L70.35 6.04001C73.12 9.48001 74.38 11.64 76.53 11.64C76.87 11.64 77.21 11.59 77.59 11.49L77.54 9.78001C77.39 9.81001 77.24 9.85001 77.07 9.85001C75.8 9.85001 74.18 8.31001 71.8 4.84001L77.58 0.240005Z" fill="#2C3E76"/>
<path id="Vector_6" d="M133.81 44.17C132.99 41.69 130.57 40.91 128.37 40.91C124.83 40.91 122.17 43.02 122.17 46.82C122.17 50.33 124.7 52.86 128.3 52.86C131.9 52.86 134.41 50.7 134.29 46.26H128.37V47.96H132.27C131.9 49.8 130.48 50.91 128.56 50.91C126.06 50.91 124.24 49.39 124.24 46.81C124.24 44.23 125.84 42.79 128.32 42.79C129.77 42.79 131.37 43.33 132.07 44.82" fill="#2C3E76"/>
</g>
</svg>
