<svg width="244" height="64" viewBox="0 0 244 64" fill="none" xmlns="http://www.w3.org/2000/svg">
<path d="M24.1021 7.86943V49.1854H15.482V7.86943H0V0.171875H40.2678V7.89402H24.1265L24.1021 7.86943Z" fill="black"/>
<path d="M55.53 21.2228C54.0648 20.2145 52.4287 19.6981 50.6461 19.6981C48.7169 19.6981 47.0076 20.5834 45.5424 22.3295C44.0284 24.0756 43.2958 26.2397 43.2958 28.7974V49.1603H34.9932V13.3777H43.2958V16.6731C45.5912 14.0417 48.7169 12.7383 52.5508 12.7383C55.3835 12.7383 57.5568 13.181 59.0708 14.0417L55.53 21.2228Z" fill="black"/>
<path d="M78.338 45.6191C77.581 46.8733 76.2623 47.8816 74.382 48.644C72.5017 49.4064 70.5726 49.8244 68.5213 49.8244C64.6874 49.8244 61.7083 48.8407 59.4861 46.9225C57.3127 45.0042 56.2139 42.2744 56.2139 38.7331C56.2139 34.6015 57.7523 31.3552 60.8292 28.9943C63.906 26.6334 68.2771 25.5021 73.9669 25.5021C74.9437 25.5021 76.067 25.6743 77.41 26.0186C77.41 21.8132 74.7727 19.6982 69.4737 19.6982C66.3724 19.6982 63.7595 20.2393 61.6594 21.2722L59.9256 14.7797C62.7583 13.4025 66.177 12.7139 70.133 12.7139C75.5541 12.7139 79.5345 13.9681 82.0253 16.452C84.5405 18.9359 85.8103 23.6331 85.8103 30.5683V38.2166C85.8103 42.963 86.7871 45.9634 88.643 47.2176C87.9348 48.4226 87.2023 49.1604 86.3476 49.431C85.5173 49.7015 84.5405 49.8244 83.4661 49.8244C82.2695 49.8244 81.1951 49.3818 80.2671 48.521C79.2903 47.6111 78.6554 46.6766 78.338 45.6191ZM77.5321 32.3635C76.1158 32.0684 75.0658 31.8963 74.3576 31.8963C67.8131 31.8963 64.5165 34.0604 64.5165 38.3888C64.5165 41.5858 66.348 43.209 70.0597 43.209C75.0413 43.209 77.5077 40.7251 77.5077 35.7082V32.3635H77.5321Z" fill="black"/>
<path d="M106.959 54.9146C106.055 57.3001 104.175 59.2921 101.244 60.8415C98.3385 62.4154 94.9198 63.2024 91.0371 63.2024V55.7999C97.4594 55.7999 100.634 54.1768 100.634 50.9551C100.634 48.8402 99.7304 45.5447 97.9966 41.118L86.8857 13.3281H95.4814L105.249 38.0685L114.114 13.3281H122.709L106.959 54.9146Z" fill="black"/>
<path d="M122.072 46.8749L125.003 40.2102C127.469 42.2023 130.277 43.2106 133.403 43.2106C136.529 43.2106 138.262 42.0547 138.262 39.743C138.262 38.3904 137.798 37.2837 136.797 36.3984C135.82 35.513 133.965 34.5047 131.156 33.3243C125.027 30.7666 121.95 27.2006 121.95 22.5772C121.95 19.4785 123.122 17.0438 125.467 15.3469C127.811 13.65 130.814 12.7646 134.453 12.7646C138.092 12.7646 141.608 13.6008 144.856 15.2485L142.487 21.7164C140.68 20.1671 138.165 19.3555 134.941 19.3555C132.06 19.3555 130.595 20.5114 130.595 22.8231C130.595 23.733 131.059 24.5692 132.035 25.2824C133.012 26.0202 135.015 27.0039 138.165 28.2335C141.266 29.4878 143.513 30.9633 144.88 32.7094C146.248 34.5047 146.956 36.6197 146.956 39.1036C146.956 42.399 145.71 45.0304 143.268 46.9487C140.826 48.8669 137.505 49.8014 133.305 49.8014C130.937 49.8014 129.056 49.6047 127.616 49.2358C126.175 48.8423 124.343 48.0308 122.097 46.8503L122.072 46.8749Z" fill="black"/>
<path d="M174.94 35.8317V49.1611H168.664V35.8317H146.54V32.0199L172.596 0H174.94V30.6673H179.848V35.8072H174.94V35.8317ZM168.664 13.3785L154.379 30.7164H168.664V13.3785Z" fill="black"/>
<path d="M182.902 0.171875H189.52V33.7165C189.52 36.7168 190.448 39.1761 192.353 41.0943C194.233 43.0126 196.724 43.9963 199.849 43.9963C203.122 43.9963 205.735 43.0618 207.615 41.1681C209.495 39.3237 210.448 36.766 210.448 33.5689V0.171875H217.065V34.2821C217.065 39.2253 215.527 43.111 212.45 45.8653C209.373 48.6689 205.197 50.0461 199.923 50.0461C194.648 50.0461 190.253 48.6935 187.322 45.9637C184.392 43.2339 182.902 39.3237 182.902 34.2575V0.171875Z" fill="black"/>
<path d="M220.776 47.0699L223.023 41.0692C226.539 43.3563 229.372 44.5368 231.521 44.5368C235.404 44.5368 237.333 42.8891 237.333 39.5936C237.333 37.2327 235.452 35.2161 231.692 33.4946C228.81 32.142 226.832 31.1337 225.831 30.4697C224.83 29.7565 223.951 28.9941 223.218 28.1088C222.486 27.2235 221.924 26.2889 221.558 25.3052C221.191 24.3215 221.021 23.2394 221.021 22.1081C221.021 19.1816 222.095 16.8945 224.195 15.1976C226.295 13.5498 229.079 12.7383 232.522 12.7383C235.086 12.7383 238.383 13.5498 242.29 15.1976L240.483 21.0998C237.968 19.1078 235.477 18.0995 232.962 18.0995C231.448 18.0995 230.178 18.4684 229.152 19.1816C228.151 19.8456 227.638 20.7555 227.638 21.8376C227.638 24.1248 228.932 25.8708 231.521 27.0513L236.039 29.1171C238.822 30.3959 240.825 31.8469 242.095 33.47C243.364 35.0932 243.999 37.1344 243.999 39.5936C243.999 42.7907 242.9 45.3238 240.654 47.1436C238.407 48.9635 235.33 49.8734 231.35 49.8734C227.614 49.8734 224.097 48.9389 220.776 47.0699Z" fill="black"/>
</svg>
