<svg width="584" height="22" viewBox="0 0 584 22" fill="none" xmlns="http://www.w3.org/2000/svg">
<path d="M0 11H584" stroke="black"/>
<rect x="264" y="1" width="57" height="21" fill="white"/>
<path d="M294.816 12.696C294.816 14.1147 294.453 15.2133 293.728 15.992C293.013 16.7707 292.043 17.16 290.816 17.16C290.059 17.16 289.381 16.9893 288.784 16.648C288.197 16.296 287.733 15.7893 287.392 15.128C287.051 14.456 286.88 13.6453 286.88 12.696C286.88 11.2773 287.232 10.184 287.936 9.416C288.651 8.648 289.627 8.264 290.864 8.264C291.632 8.264 292.315 8.44 292.912 8.792C293.509 9.13333 293.973 9.63467 294.304 10.296C294.645 10.9467 294.816 11.7467 294.816 12.696ZM288.336 12.696C288.336 13.7093 288.533 14.5147 288.928 15.112C289.333 15.6987 289.973 15.992 290.848 15.992C291.712 15.992 292.347 15.6987 292.752 15.112C293.157 14.5147 293.36 13.7093 293.36 12.696C293.36 11.6827 293.157 10.888 292.752 10.312C292.347 9.736 291.707 9.448 290.832 9.448C289.957 9.448 289.323 9.736 288.928 10.312C288.533 10.888 288.336 11.6827 288.336 12.696ZM301.048 8.264C301.208 8.264 301.378 8.27467 301.56 8.296C301.741 8.30667 301.906 8.328 302.056 8.36L301.88 9.656C301.741 9.624 301.586 9.59733 301.416 9.576C301.245 9.55467 301.09 9.544 300.952 9.544C300.514 9.544 300.104 9.66667 299.72 9.912C299.336 10.1467 299.026 10.4827 298.792 10.92C298.568 11.3467 298.456 11.848 298.456 12.424V17H297.048V8.424H298.2L298.36 9.992H298.424C298.69 9.52267 299.042 9.11733 299.48 8.776C299.928 8.43467 300.45 8.264 301.048 8.264Z" fill="black"/>
</svg>
