<svg xmlns="http://www.w3.org/2000/svg"  viewBox="0 0 48 48" width="48px" height="48px" baseProfile="basic"><path fill="#F60" d="M40,11H6v28c0,1.657,1.343,3,3,3h28c1.657,0,3-1.343,3-3V11z"/><path fill="#fff" d="M37,39H9c-1.105,0-2-0.895-2-2V7h32v30C39,38.105,38.105,39,37,39z"/><path fill="#F60" d="M37,40H9c-1.654,0-3-1.346-3-3V7c0-0.552,0.448-1,1-1h32c0.552,0,1,0.448,1,1v30C40,38.654,38.654,40,37,40z M8,8v29	c0,0.551,0.449,1,1,1h28c0.551,0,1-0.449,1-1V8H8z"/><path fill="#F60" d="M29,12H17c0,0,0,0.895,0,2c0,1.105,0.895,2,2,2c0.601,0,7.399,0,8,0c1.105,0,2-0.895,2-2C29,12.895,29,12,29,12z"/></svg>