<svg width="21" height="19" viewBox="0 0 21 19" fill="none" xmlns="http://www.w3.org/2000/svg">
<path d="M19.5166 5.05438C19.5166 6.25467 18.9514 7.64024 18.0314 9.08212C17.1183 10.5132 15.8925 11.9432 14.6538 13.2199C13.4171 14.4946 12.1786 15.6051 11.2483 16.3975C10.7835 16.7934 10.3965 17.1092 10.1263 17.3256C10.0842 17.3592 10.045 17.3905 10.0088 17.4193C9.97255 17.3905 9.93333 17.3592 9.89128 17.3256C9.62106 17.1092 9.23408 16.7934 8.76929 16.3975C7.83903 15.6051 6.6005 14.4946 5.36374 13.2199C4.12504 11.9432 2.89929 10.5132 1.9862 9.08212C1.0662 7.64023 0.500977 6.25466 0.500977 5.05437C0.500977 2.36017 2.70847 0.785619 5.04893 0.578626C6.21008 0.475933 7.3371 0.723458 8.15872 1.29745C8.96214 1.85873 9.50879 2.75395 9.50879 4.05427H10.0088H10.5088C10.5088 2.75058 11.0564 1.84321 11.8624 1.26964C12.6855 0.683912 13.8128 0.424505 14.9721 0.518924C17.3034 0.708798 19.5166 2.2803 19.5166 5.05438Z" fill="#FF6600" stroke="#FF6600"/>
</svg>
